<svg xmlns="http://www.w3.org/2000/svg" viewBox="0 0 439 120">
<defs>
  <linearGradient id="ag" x1="8" y1="6" x2="112" y2="116" gradientUnits="userSpaceOnUse">
    <stop offset="0" stop-color="#4F46E5"/>
    <stop offset="0.55" stop-color="#2DA8E0"/>
    <stop offset="1" stop-color="#22D3C5"/>
  </linearGradient>
</defs>
<g>
  <path d="M 60.00,4.00 L 11.50,32.00 L 11.50,88.00 L 60.00,116.00 L 108.50,88.00 L 108.50,32.00 Z" fill="url(#ag)"/>
  <path d="M 60.00,4.00 L 11.50,32.00 L 11.50,88.00 L 60.00,116.00 L 108.50,88.00 L 108.50,32.00 Z" fill="none" stroke="#0B1020" stroke-opacity="0.06" stroke-width="2"/>
  <g fill="none" stroke="#FFFFFF" stroke-width="9" stroke-linecap="round">
    <path d="M 79.09,40.91 A 27,27 0 0 0 33.92,66.99"/>
    <path d="M 40.91,79.09 A 27,27 0 0 0 86.08,53.01"/>
  </g>
  <g fill="#FFFFFF">
    <path d="M 37.80,81.48 L 21.55,67.20 L 44.73,60.98 Z"/>
    <path d="M 82.20,38.52 L 98.45,52.80 L 75.27,59.02 Z"/>
  </g>
</g>
<g font-family="'Segoe UI','Helvetica Neue',Arial,sans-serif" font-weight="700" font-size="60" letter-spacing="-1">
  <text x="138" y="80" fill="#1E293B">Airin<tspan fill="#0EA5B7">Sync</tspan></text>
</g>
</svg>
